<svg xmlns="http://www.w3.org/2000/svg" width="56" height="56" viewBox="0 0 56 56" fill="none">
    <path fill-rule="evenodd" clip-rule="evenodd" d="M14.8902 26.5728L23.7452 30.8919C25.448 31.7231 25.1854 34.2274 23.3462 34.6859L13.7877 37.0693C12.596 37.3668 11.4182 36.5443 11.2782 35.3228C10.9836 32.7691 11.2561 30.1817 12.0762 27.7453C12.1688 27.4721 12.3185 27.2218 12.5154 27.011C12.7123 26.8002 12.9518 26.6338 13.2181 26.5229C13.4844 26.4119 13.7712 26.359 14.0595 26.3676C14.3479 26.3762 14.631 26.4462 14.8902 26.5728ZM18.4357 44.8008L25.0262 37.4806C26.2932 36.0718 28.6294 37.0168 28.5612 38.9103L28.2182 48.7576C28.208 49.0467 28.1362 49.3304 28.0075 49.5895C27.8789 49.8486 27.6964 50.0773 27.4722 50.2602C27.248 50.4431 26.9874 50.5761 26.7077 50.6501C26.428 50.7242 26.1358 50.7376 25.8505 50.6896C23.318 50.2628 20.9093 49.2881 18.7927 47.8336C18.5545 47.6698 18.354 47.457 18.2046 47.2094C18.0553 46.9619 17.9605 46.6853 17.9267 46.3982C17.8929 46.111 17.9208 45.82 18.0086 45.5445C18.0964 45.269 18.242 45.0155 18.4357 44.8008ZM34.0615 35.0604L43.4292 38.1054C44.5947 38.4833 45.1634 39.8028 44.6367 40.9088C43.5308 43.2269 41.932 45.2755 39.952 46.9114C39.7288 47.0956 39.4689 47.2301 39.1896 47.3059C38.9103 47.3816 38.618 47.3967 38.3324 47.3503C38.0467 47.3039 37.7743 47.1971 37.5333 47.0368C37.2923 46.8766 37.0883 46.6668 36.9349 46.4213L31.7129 38.0651C30.7084 36.4586 32.259 34.4741 34.0615 35.0604ZM43.5885 29.0841L34.1192 31.8001C32.2974 32.3216 30.8169 30.2846 31.8757 28.7131L37.3864 20.5458C37.5475 20.3067 37.7577 20.1046 38.003 19.9531C38.2483 19.8015 38.523 19.7039 38.809 19.6668C39.0949 19.6297 39.3855 19.654 39.6613 19.738C39.9372 19.8219 40.1919 19.9637 40.4087 20.1538C42.3372 21.8538 43.8669 23.9583 44.8887 26.3174C45.0044 26.5826 45.0621 26.8695 45.0581 27.1588C45.054 27.4482 44.9882 27.7333 44.8652 27.9952C44.7421 28.2571 44.5645 28.4897 44.3444 28.6775C44.1242 28.8653 43.8665 29.0039 43.5885 29.0841ZM21.4615 6.1066C19.757 6.5616 18.1312 7.16535 16.593 7.8986C16.3407 8.01966 16.1162 8.19156 15.9335 8.40351C15.7509 8.61546 15.614 8.86289 15.5315 9.13025C15.449 9.39761 15.4227 9.67914 15.4542 9.95717C15.4856 10.2352 15.5743 10.5037 15.7144 10.7459L24.9702 26.7759C26.0079 28.5749 28.7572 27.8381 28.7572 25.7609V7.2511C28.7575 6.97134 28.7 6.69454 28.5883 6.43806C28.4766 6.18158 28.313 5.95096 28.108 5.76067C27.9029 5.57038 27.6607 5.42454 27.3966 5.33229C27.1325 5.24004 26.8522 5.20338 26.5732 5.2246C24.8757 5.35935 23.1659 5.64985 21.4615 6.1066Z" fill="#0A68A8"/>
</svg>